<svg version="1.1" id="Layer_1" xmlns="http://www.w3.org/2000/svg" xmlns:xlink="http://www.w3.org/1999/xlink" x="0px" y="0px"
	 width="100%" viewBox="0 0 864 864" enable-background="new 0 0 864 864" xml:space="preserve">
<path fill="#000000" opacity="1.000000" stroke="none" 
	d="
M338.677826,684.515808 
	C346.701202,683.559753 354.256470,682.301331 361.858490,681.873535 
	C371.636017,681.323242 380.689240,694.437134 377.812103,704.523193 
	C375.212219,713.637512 368.713501,718.075684 359.669983,719.303223 
	C346.670258,721.067627 333.665161,722.792358 319.763245,724.654480 
	C325.577576,729.204956 331.738007,731.532410 337.544403,734.447510 
	C361.676453,746.562439 387.137177,754.546509 413.866241,758.246521 
	C432.177704,760.781189 450.538910,761.287781 469.061890,759.864136 
	C492.126038,758.091431 514.300171,753.067200 536.057617,745.399109 
	C569.354004,733.664185 597.589050,713.988037 623.676636,690.773376 
	C628.645630,686.351624 633.550720,681.899597 639.123901,678.143494 
	C645.819580,673.630859 658.304504,675.549194 663.170715,682.078430 
	C668.910522,689.779968 668.513123,700.071838 661.714355,707.201172 
	C622.371216,748.457336 575.462463,776.875610 519.950806,790.704529 
	C490.296295,798.091980 460.102753,799.884094 429.785980,798.179443 
	C389.748138,795.928162 351.974640,784.717651 316.142334,766.832703 
	C314.875366,766.200256 313.720917,764.896423 311.505859,766.198914 
	C313.807434,772.161072 317.562775,777.398071 320.693390,782.946411 
	C324.531586,789.748901 328.798065,796.335327 330.593842,804.101624 
	C332.829865,813.771790 325.700409,824.072327 315.924255,825.293884 
	C306.860016,826.426453 299.784119,823.146118 295.263580,815.313232 
	C279.698212,788.342346 264.320099,761.263428 248.873169,734.224182 
	C246.229599,729.596680 243.331604,725.091492 241.012726,720.306030 
	C234.509949,706.886536 242.230179,694.658630 257.100830,693.548401 
	C270.822021,692.523926 284.475311,690.590210 298.158783,689.059692 
	C311.515839,687.565674 324.873260,686.074890 338.677826,684.515808 
z"/>
<path fill="#000000" opacity="1.000000" stroke="none" 
	d="
M508.110382,97.634186 
	C526.894775,101.475883 544.640930,107.434021 562.905151,112.843712 
	C558.229248,104.834007 553.386719,96.915550 548.934753,88.783264 
	C545.846985,83.142982 542.489685,77.586197 542.573181,70.672485 
	C542.736084,57.193184 556.283386,48.435196 568.687256,54.034229 
	C573.591003,56.247742 576.941956,60.069298 579.633606,64.625313 
	C596.998962,94.018257 614.363586,123.411789 631.828552,152.745514 
	C634.682495,157.538818 636.107117,162.494629 635.098938,167.986816 
	C633.528381,176.542755 628.491943,180.852051 618.197754,182.194473 
	C599.084778,184.686966 580.204346,188.546417 561.217407,191.771240 
	C547.142090,194.161880 533.163330,197.124146 519.148865,199.868927 
	C509.533081,201.752182 499.469513,194.057373 498.682800,184.165131 
	C497.794434,172.994736 501.722473,166.925018 512.441956,163.521255 
	C526.729919,158.984344 541.683533,157.537598 557.323914,154.043304 
	C555.004150,152.937561 553.397766,152.081039 551.723816,151.387589 
	C527.355103,141.292831 502.344086,133.872131 475.919128,131.225601 
	C419.907257,125.615860 367.968445,137.238419 319.693604,166.188812 
	C300.399292,177.759613 283.077484,191.590378 267.327820,207.573166 
	C255.970840,219.098236 239.054749,215.755768 234.528015,201.095764 
	C232.485260,194.480240 234.344421,188.163803 238.832809,183.003143 
	C258.371826,160.537598 281.281586,142.213425 307.355804,127.841301 
	C339.460815,110.145020 373.724731,98.834518 410.000122,93.898102 
	C433.477234,90.703293 457.045532,90.455780 480.639282,93.418396 
	C489.706879,94.556984 498.755493,95.653122 508.110382,97.634186 
z"/>
<path fill="#000000" opacity="1.000000" stroke="none" 
	d="
M729.000000,342.260376 
	C671.031555,342.261780 613.563110,342.276764 556.094666,342.254272 
	C542.624146,342.248993 533.264526,335.167542 529.365967,323.976044 
	C524.226379,309.222260 534.981934,291.667755 553.117676,290.698303 
	C553.782593,290.662750 554.449524,290.649384 555.115479,290.649384 
	C644.899536,290.649170 734.683533,290.626282 824.467590,290.692566 
	C833.224243,290.699036 840.909851,293.997650 846.306946,300.941956 
	C852.581360,309.015350 854.012451,318.306824 849.660217,327.702240 
	C844.983521,337.798065 836.323242,342.196259 825.447327,342.221832 
	C793.465027,342.297089 761.482483,342.255890 729.000000,342.260376 
z"/>
<path fill="#000000" opacity="1.000000" stroke="none" 
	d="
M580.000000,410.963074 
	C660.963257,410.968506 741.426575,410.977509 821.889832,410.973145 
	C828.121338,410.972809 834.121521,411.663422 839.632629,415.020630 
	C849.290466,420.903870 853.964539,432.040527 851.120422,442.931641 
	C848.272949,453.835846 838.742859,461.311981 827.229187,461.323730 
	C775.586060,461.376312 723.942993,461.348938 672.299866,461.348999 
	C632.817871,461.349091 593.335876,461.391266 553.853943,461.328064 
	C533.011597,461.294708 520.791931,439.954681 531.418396,422.090668 
	C536.105835,414.210754 543.689636,411.159058 552.513245,411.001862 
	C561.506226,410.841675 570.504211,410.964386 580.000000,410.963074 
z"/>
<path fill="#000000" opacity="1.000000" stroke="none" 
	d="
M736.000061,530.640991 
	C744.620300,531.107239 752.841187,529.516907 760.872192,531.544922 
	C772.180176,534.400391 779.805969,545.263123 779.304016,557.471863 
	C778.827332,569.063660 770.876465,578.195007 759.397522,580.478882 
	C757.102661,580.935547 754.843811,581.323792 752.489685,581.322998 
	C686.673340,581.300964 620.856995,581.318542 555.040649,581.297180 
	C541.939514,581.292969 531.805786,574.416931 528.479553,563.444031 
	C523.475342,546.935608 535.318542,530.683716 552.547302,530.668213 
	C613.531555,530.613525 674.515808,530.643494 736.000061,530.640991 
z"/>
<path fill="#000000" opacity="1.000000" stroke="none" 
	d="
M266.312622,292.317932 
	C277.290161,297.169312 280.742279,304.441528 277.760498,316.371613 
	C268.589661,353.064453 259.301941,389.728027 250.148178,426.425110 
	C236.731400,480.212585 223.371811,534.014404 210.036224,587.822083 
	C207.599152,597.655334 202.456406,603.220276 194.350388,604.348816 
	C185.316849,605.606506 177.518326,601.869202 173.213501,594.342651 
	C170.788330,590.102539 171.184540,585.594666 172.241821,581.252502 
	C179.543137,551.267517 186.959991,521.310364 194.428101,491.366272 
	C209.808578,429.696869 225.214127,368.033722 240.683487,306.386566 
	C243.680603,294.442688 253.973663,288.779449 266.312622,292.317932 
z"/>
<path fill="#000000" opacity="1.000000" stroke="none" 
	d="
M313.731018,556.031494 
	C308.750275,547.047485 309.898834,538.015198 316.865540,531.083374 
	C341.902924,506.171265 366.918884,481.236877 392.116333,456.487457 
	C395.479828,453.183746 395.851685,451.255676 392.328461,447.775177 
	C367.915161,423.657684 343.736786,399.302612 319.399323,375.108002 
	C313.400513,369.144348 309.662354,362.590179 311.542816,353.767700 
	C313.291077,345.565277 318.551392,340.671326 326.230194,338.367981 
	C333.143524,336.294250 339.369965,337.978149 344.542664,343.159912 
	C369.494507,368.155457 394.447266,393.150085 419.407867,418.136902 
	C425.883270,424.619110 432.517670,430.948120 438.845917,437.570251 
	C446.493774,445.573212 447.115417,458.723511 439.726257,466.154999 
	C408.598969,497.460693 377.618134,528.921814 345.615265,559.338806 
	C334.868439,569.553101 322.963654,568.135742 313.731018,556.031494 
z"/>
<path fill="#000000" opacity="1.000000" stroke="none" 
	d="
M73.711243,456.301575 
	C97.878609,481.154633 121.859192,505.698700 145.691666,530.385742 
	C157.526962,542.645447 153.345871,561.176025 137.880081,565.629333 
	C130.432114,567.773987 124.145012,565.513977 118.831017,560.067810 
	C95.333115,535.985535 71.827354,511.910889 48.318455,487.839355 
	C41.684505,481.046661 35.010342,474.293152 28.390127,467.487122 
	C19.171721,458.010010 19.126446,444.798492 28.472239,435.371521 
	C49.696674,413.962799 71.017807,392.649963 92.296234,371.294739 
	C100.879150,362.680786 109.753189,354.332581 117.955284,345.369781 
	C128.164337,334.213867 139.053055,336.127197 147.641968,344.153931 
	C155.680664,351.666473 155.120438,364.794800 146.425278,373.629608 
	C122.237312,398.206146 98.026062,422.760193 73.713318,447.213074 
	C70.568245,450.376251 69.288399,452.976410 73.711243,456.301575 
z"/>
</svg>