<?xml version="1.0" encoding="UTF-8" standalone="no"?>
<!DOCTYPE svg PUBLIC "-//W3C//DTD SVG 1.1//EN"
 "http://www.w3.org/Graphics/SVG/1.1/DTD/svg11.dtd">
<!-- Generated by graphviz version 13.1.2 (20250808.2320)
 -->
<!-- Pages: 1 -->
<svg width="747pt" height="729pt"
 viewBox="0.00 0.00 747.00 729.00" xmlns="http://www.w3.org/2000/svg" xmlns:xlink="http://www.w3.org/1999/xlink">
<g id="graph0" class="graph" transform="scale(1 1) rotate(0) translate(4 724.88)">
<polygon fill="white" stroke="none" points="-4,4 -4,-724.88 743.27,-724.88 743.27,4 -4,4"/>
<!-- generate_summary_section -->
<g id="node1" class="node">
<title>generate_summary_section</title>
<ellipse fill="none" stroke="black" cx="319.6" cy="-691.89" rx="116.85" ry="28.99"/>
<text xml:space="preserve" text-anchor="middle" x="319.6" y="-695.09" font-family="Times,serif" font-size="14.00">generate_summary_section</text>
<text xml:space="preserve" text-anchor="middle" x="319.6" y="-678.59" font-family="Times,serif" font-size="14.00">75</text>
</g>
<!-- inspect_mapping -->
<g id="node2" class="node">
<title>inspect_mapping</title>
<ellipse fill="none" stroke="black" cx="319.6" cy="-581.41" rx="77.07" ry="28.99"/>
<text xml:space="preserve" text-anchor="middle" x="319.6" y="-584.61" font-family="Times,serif" font-size="14.00">inspect_mapping</text>
<text xml:space="preserve" text-anchor="middle" x="319.6" y="-568.11" font-family="Times,serif" font-size="14.00">307</text>
</g>
<!-- generate_summary_section&#45;&gt;inspect_mapping -->
<g id="edge1" class="edge">
<title>generate_summary_section&#45;&gt;inspect_mapping</title>
<path fill="none" stroke="black" d="M319.6,-662.67C319.6,-650.34 319.6,-635.65 319.6,-622.23"/>
<polygon fill="black" stroke="black" points="323.1,-622.37 319.6,-612.37 316.1,-622.37 323.1,-622.37"/>
<text xml:space="preserve" text-anchor="middle" x="326.35" y="-631.6" font-family="Times,serif" font-size="14.00">49</text>
</g>
<!-- change_summary_level -->
<g id="node3" class="node">
<title>change_summary_level</title>
<ellipse fill="none" stroke="black" cx="138.6" cy="-470.92" rx="103.06" ry="28.99"/>
<text xml:space="preserve" text-anchor="middle" x="138.6" y="-474.12" font-family="Times,serif" font-size="14.00">change_summary_level</text>
<text xml:space="preserve" text-anchor="middle" x="138.6" y="-457.62" font-family="Times,serif" font-size="14.00">152</text>
</g>
<!-- generate_summary_section&#45;&gt;change_summary_level -->
<g id="edge10" class="edge">
<title>generate_summary_section&#45;&gt;change_summary_level</title>
<path fill="none" stroke="black" d="M281.28,-664.36C261.71,-649.75 238.26,-630.52 220.1,-610.4 193.11,-580.47 190.82,-569.28 170.6,-534.41 166.09,-526.63 161.52,-518.14 157.3,-509.99"/>
<polygon fill="black" stroke="black" points="160.52,-508.61 152.86,-501.29 154.29,-511.79 160.52,-508.61"/>
<text xml:space="preserve" text-anchor="middle" x="226.85" y="-576.36" font-family="Times,serif" font-size="14.00">22</text>
</g>
<!-- commit_direct_instruction -->
<g id="node8" class="node">
<title>commit_direct_instruction</title>
<ellipse fill="none" stroke="black" cx="625.6" cy="-470.92" rx="113.67" ry="28.99"/>
<text xml:space="preserve" text-anchor="middle" x="625.6" y="-474.12" font-family="Times,serif" font-size="14.00">commit_direct_instruction</text>
<text xml:space="preserve" text-anchor="middle" x="625.6" y="-457.62" font-family="Times,serif" font-size="14.00">8</text>
</g>
<!-- generate_summary_section&#45;&gt;commit_direct_instruction -->
<g id="edge17" class="edge">
<title>generate_summary_section&#45;&gt;commit_direct_instruction</title>
<path fill="none" stroke="black" d="M359.04,-664.33C404.29,-633.66 480.51,-581.38 544.6,-534.41 557.05,-525.3 570.37,-515.17 582.55,-505.77"/>
<polygon fill="black" stroke="black" points="584.64,-508.57 590.4,-499.68 580.35,-503.04 584.64,-508.57"/>
<text xml:space="preserve" text-anchor="middle" x="521.21" y="-576.36" font-family="Times,serif" font-size="14.00">2</text>
</g>
<!-- inspect_mapping&#45;&gt;change_summary_level -->
<g id="edge2" class="edge">
<title>inspect_mapping&#45;&gt;change_summary_level</title>
<path fill="none" stroke="black" d="M256.57,-564.34C235.37,-557.19 212.31,-547.39 193.35,-534.41 182.97,-527.3 173.3,-517.78 165.06,-508.31"/>
<polygon fill="black" stroke="black" points="167.97,-506.33 158.89,-500.86 162.58,-510.8 167.97,-506.33"/>
<text xml:space="preserve" text-anchor="middle" x="203.48" y="-521.11" font-family="Times,serif" font-size="14.00">129</text>
</g>
<!-- apply_instruction_summary -->
<g id="node4" class="node">
<title>apply_instruction_summary</title>
<ellipse fill="none" stroke="black" cx="151.6" cy="-360.44" rx="119.5" ry="28.99"/>
<text xml:space="preserve" text-anchor="middle" x="151.6" y="-363.64" font-family="Times,serif" font-size="14.00">apply_instruction_summary</text>
<text xml:space="preserve" text-anchor="middle" x="151.6" y="-347.14" font-family="Times,serif" font-size="14.00">50</text>
</g>
<!-- inspect_mapping&#45;&gt;apply_instruction_summary -->
<g id="edge4" class="edge">
<title>inspect_mapping&#45;&gt;apply_instruction_summary</title>
<path fill="none" stroke="black" d="M309.74,-552.39C298.46,-522.9 277.97,-476.11 250.6,-441.93 236.45,-424.26 217.83,-407.87 200.55,-394.56"/>
<polygon fill="black" stroke="black" points="202.98,-392 192.88,-388.79 198.77,-397.6 202.98,-392"/>
<text xml:space="preserve" text-anchor="middle" x="293.31" y="-465.87" font-family="Times,serif" font-size="14.00">43</text>
</g>
<!-- commit_modified_summary -->
<g id="node5" class="node">
<title>commit_modified_summary</title>
<ellipse fill="none" stroke="black" cx="195.6" cy="-249.96" rx="122.68" ry="28.99"/>
<text xml:space="preserve" text-anchor="middle" x="195.6" y="-253.16" font-family="Times,serif" font-size="14.00">commit_modified_summary</text>
<text xml:space="preserve" text-anchor="middle" x="195.6" y="-236.66" font-family="Times,serif" font-size="14.00">52</text>
</g>
<!-- inspect_mapping&#45;&gt;commit_modified_summary -->
<g id="edge12" class="edge">
<title>inspect_mapping&#45;&gt;commit_modified_summary</title>
<path fill="none" stroke="black" d="M321.29,-552.24C322.93,-503.87 320.68,-403.27 280.6,-331.45 270.92,-314.09 256.23,-298.25 241.77,-285.29"/>
<polygon fill="black" stroke="black" points="244.33,-282.88 234.47,-279 239.76,-288.18 244.33,-282.88"/>
<text xml:space="preserve" text-anchor="middle" x="318.88" y="-410.63" font-family="Times,serif" font-size="14.00">10</text>
</g>
<!-- update_summary_section -->
<g id="node6" class="node">
<title>update_summary_section</title>
<ellipse fill="none" stroke="black" cx="307.6" cy="-139.47" rx="109.96" ry="28.99"/>
<text xml:space="preserve" text-anchor="middle" x="307.6" y="-142.67" font-family="Times,serif" font-size="14.00">update_summary_section</text>
<text xml:space="preserve" text-anchor="middle" x="307.6" y="-126.17" font-family="Times,serif" font-size="14.00">48</text>
</g>
<!-- inspect_mapping&#45;&gt;update_summary_section -->
<g id="edge9" class="edge">
<title>inspect_mapping&#45;&gt;update_summary_section</title>
<path fill="none" stroke="black" d="M356.41,-555.51C380.53,-535.97 407.6,-506.36 407.6,-471.92 407.6,-471.92 407.6,-471.92 407.6,-248.96 407.6,-217.84 385.09,-191.83 361.42,-173.08"/>
<polygon fill="black" stroke="black" points="363.65,-170.37 353.55,-167.17 359.44,-175.97 363.65,-170.37"/>
<text xml:space="preserve" text-anchor="middle" x="410.98" y="-355.39" font-family="Times,serif" font-size="14.00">5</text>
</g>
<!-- toggle_section -->
<g id="node7" class="node">
<title>toggle_section</title>
<ellipse fill="none" stroke="black" cx="445.6" cy="-28.99" rx="67" ry="28.99"/>
<text xml:space="preserve" text-anchor="middle" x="445.6" y="-32.19" font-family="Times,serif" font-size="14.00">toggle_section</text>
<text xml:space="preserve" text-anchor="middle" x="445.6" y="-15.69" font-family="Times,serif" font-size="14.00">16</text>
</g>
<!-- inspect_mapping&#45;&gt;toggle_section -->
<g id="edge16" class="edge">
<title>inspect_mapping&#45;&gt;toggle_section</title>
<path fill="none" stroke="black" d="M383.95,-565.29C429.9,-550.23 483.6,-521.93 483.6,-471.92 483.6,-471.92 483.6,-471.92 483.6,-138.47 483.6,-114.12 474.96,-88.32 465.92,-68"/>
<polygon fill="black" stroke="black" points="469.11,-66.56 461.7,-58.99 462.77,-69.53 469.11,-66.56"/>
<text xml:space="preserve" text-anchor="middle" x="490.35" y="-300.15" font-family="Times,serif" font-size="14.00">11</text>
</g>
<!-- inspect_mapping&#45;&gt;commit_direct_instruction -->
<g id="edge15" class="edge">
<title>inspect_mapping&#45;&gt;commit_direct_instruction</title>
<path fill="none" stroke="black" d="M386.51,-566.48C420.31,-558.61 461.67,-547.67 497.6,-534.41 521.44,-525.62 546.75,-513.82 568.53,-502.84"/>
<polygon fill="black" stroke="black" points="569.92,-506.06 577.24,-498.39 566.74,-499.83 569.92,-506.06"/>
<text xml:space="preserve" text-anchor="middle" x="537.1" y="-521.11" font-family="Times,serif" font-size="14.00">6</text>
</g>
<!-- change_summary_level&#45;&gt;inspect_mapping -->
<g id="edge3" class="edge">
<title>change_summary_level&#45;&gt;inspect_mapping</title>
<path fill="none" stroke="black" d="M181.5,-497.63C207.92,-513.47 241.91,-533.84 269.56,-550.41"/>
<polygon fill="black" stroke="black" points="267.76,-553.41 278.14,-555.55 271.36,-547.41 267.76,-553.41"/>
<text xml:space="preserve" text-anchor="middle" x="250.07" y="-521.11" font-family="Times,serif" font-size="14.00">146</text>
</g>
<!-- change_summary_level&#45;&gt;apply_instruction_summary -->
<g id="edge11" class="edge">
<title>change_summary_level&#45;&gt;apply_instruction_summary</title>
<path fill="none" stroke="black" d="M141.98,-441.7C143.46,-429.37 145.22,-414.68 146.83,-401.27"/>
<polygon fill="black" stroke="black" points="150.3,-401.74 148.01,-391.4 143.35,-400.91 150.3,-401.74"/>
<text xml:space="preserve" text-anchor="middle" x="149.26" y="-410.63" font-family="Times,serif" font-size="14.00">4</text>
</g>
<!-- apply_instruction_summary&#45;&gt;inspect_mapping -->
<g id="edge18" class="edge">
<title>apply_instruction_summary&#45;&gt;inspect_mapping</title>
<path fill="none" stroke="black" d="M86,-385.03C60.63,-397.74 34.28,-416.22 19.85,-441.93 7.25,-464.41 4.17,-479.46 19.85,-499.91 33.56,-517.79 157.29,-546.66 241.43,-564.53"/>
<polygon fill="black" stroke="black" points="240.53,-567.92 251.03,-566.56 241.97,-561.07 240.53,-567.92"/>
<text xml:space="preserve" text-anchor="middle" x="23.23" y="-465.87" font-family="Times,serif" font-size="14.00">6</text>
</g>
<!-- apply_instruction_summary&#45;&gt;commit_modified_summary -->
<g id="edge5" class="edge">
<title>apply_instruction_summary&#45;&gt;commit_modified_summary</title>
<path fill="none" stroke="black" d="M163.05,-331.22C168.19,-318.54 174.34,-303.37 179.91,-289.65"/>
<polygon fill="black" stroke="black" points="183.13,-291.02 183.65,-280.44 176.64,-288.39 183.13,-291.02"/>
<text xml:space="preserve" text-anchor="middle" x="182.99" y="-300.15" font-family="Times,serif" font-size="14.00">41</text>
</g>
<!-- commit_modified_summary&#45;&gt;inspect_mapping -->
<g id="edge8" class="edge">
<title>commit_modified_summary&#45;&gt;inspect_mapping</title>
<path fill="none" stroke="black" d="M111.88,-271.37C79.18,-283.52 44.38,-302.44 22.6,-331.45 16.22,-339.95 -11.5,-466.96 5.6,-499.91 17.87,-523.55 29.64,-525.14 54.6,-534.41 131.21,-562.88 157.73,-535.1 237.6,-552.41 243.48,-553.69 249.53,-555.25 255.54,-556.97"/>
<polygon fill="black" stroke="black" points="254.26,-560.24 264.84,-559.79 256.29,-553.54 254.26,-560.24"/>
<text xml:space="preserve" text-anchor="middle" x="8.41" y="-410.63" font-family="Times,serif" font-size="14.00">8</text>
</g>
<!-- commit_modified_summary&#45;&gt;update_summary_section -->
<g id="edge6" class="edge">
<title>commit_modified_summary&#45;&gt;update_summary_section</title>
<path fill="none" stroke="black" d="M224.16,-221.3C238.48,-207.42 255.99,-190.46 271.27,-175.67"/>
<polygon fill="black" stroke="black" points="273.66,-178.23 278.4,-168.76 268.79,-173.2 273.66,-178.23"/>
<text xml:space="preserve" text-anchor="middle" x="265.06" y="-189.67" font-family="Times,serif" font-size="14.00">43</text>
</g>
<!-- update_summary_section&#45;&gt;inspect_mapping -->
<g id="edge7" class="edge">
<title>update_summary_section&#45;&gt;inspect_mapping</title>
<path fill="none" stroke="black" d="M328.52,-168.33C342.22,-189.35 357.6,-219.51 357.6,-248.96 357.6,-471.92 357.6,-471.92 357.6,-471.92 357.6,-496.28 348.96,-522.07 339.92,-542.4"/>
<polygon fill="black" stroke="black" points="336.77,-540.87 335.7,-551.41 343.11,-543.84 336.77,-540.87"/>
<text xml:space="preserve" text-anchor="middle" x="364.35" y="-355.39" font-family="Times,serif" font-size="14.00">36</text>
</g>
<!-- update_summary_section&#45;&gt;toggle_section -->
<g id="edge13" class="edge">
<title>update_summary_section&#45;&gt;toggle_section</title>
<path fill="none" stroke="black" d="M341.72,-111.66C360.96,-96.53 385.11,-77.54 405.29,-61.69"/>
<polygon fill="black" stroke="black" points="407.35,-64.51 413.05,-55.58 403.03,-59.01 407.35,-64.51"/>
<text xml:space="preserve" text-anchor="middle" x="388.24" y="-79.18" font-family="Times,serif" font-size="14.00">4</text>
</g>
<!-- toggle_section&#45;&gt;inspect_mapping -->
<g id="edge14" class="edge">
<title>toggle_section&#45;&gt;inspect_mapping</title>
<path fill="none" stroke="black" d="M445.6,-58.09C445.6,-79.99 445.6,-111.17 445.6,-138.47 445.6,-471.92 445.6,-471.92 445.6,-471.92 445.6,-509.33 413.31,-536.67 381.43,-554.54"/>
<polygon fill="black" stroke="black" points="380.1,-551.28 372.92,-559.07 383.39,-557.46 380.1,-551.28"/>
<text xml:space="preserve" text-anchor="middle" x="452.35" y="-300.15" font-family="Times,serif" font-size="14.00">14</text>
</g>
</g>
</svg>
