<?xml version="1.0" encoding="UTF-8" standalone="no"?>
<!DOCTYPE svg PUBLIC "-//W3C//DTD SVG 1.1//EN"
 "http://www.w3.org/Graphics/SVG/1.1/DTD/svg11.dtd">
<!-- Generated by graphviz version 13.1.2 (20250808.2320)
 -->
<!-- Pages: 1 -->
<svg width="319pt" height="287pt"
 viewBox="0.00 0.00 319.00 287.00" xmlns="http://www.w3.org/2000/svg" xmlns:xlink="http://www.w3.org/1999/xlink">
<g id="graph0" class="graph" transform="scale(1 1) rotate(0) translate(4 282.95)">
<polygon fill="white" stroke="none" points="-4,4 -4,-282.95 315.35,-282.95 315.35,4 -4,4"/>
<!-- generate_summary_section -->
<g id="node1" class="node">
<title>generate_summary_section</title>
<ellipse fill="none" stroke="black" cx="188.67" cy="-249.96" rx="116.85" ry="28.99"/>
<text xml:space="preserve" text-anchor="middle" x="188.67" y="-253.16" font-family="Times,serif" font-size="14.00">generate_summary_section</text>
<text xml:space="preserve" text-anchor="middle" x="188.67" y="-236.66" font-family="Times,serif" font-size="14.00">87</text>
</g>
<!-- commit_direct_instruction -->
<g id="node2" class="node">
<title>commit_direct_instruction</title>
<ellipse fill="none" stroke="black" cx="113.67" cy="-139.47" rx="113.67" ry="28.99"/>
<text xml:space="preserve" text-anchor="middle" x="113.67" y="-142.67" font-family="Times,serif" font-size="14.00">commit_direct_instruction</text>
<text xml:space="preserve" text-anchor="middle" x="113.67" y="-126.17" font-family="Times,serif" font-size="14.00">55</text>
</g>
<!-- generate_summary_section&#45;&gt;commit_direct_instruction -->
<g id="edge1" class="edge">
<title>generate_summary_section&#45;&gt;commit_direct_instruction</title>
<path fill="none" stroke="black" d="M169.35,-221.02C160.17,-207.73 149.06,-191.67 139.19,-177.39"/>
<polygon fill="black" stroke="black" points="142.34,-175.8 133.78,-169.56 136.58,-179.78 142.34,-175.8"/>
<text xml:space="preserve" text-anchor="middle" x="162.41" y="-189.67" font-family="Times,serif" font-size="14.00">53</text>
</g>
<!-- commit_modified_summary -->
<g id="node3" class="node">
<title>commit_modified_summary</title>
<ellipse fill="none" stroke="black" cx="188.67" cy="-28.99" rx="122.68" ry="28.99"/>
<text xml:space="preserve" text-anchor="middle" x="188.67" y="-32.19" font-family="Times,serif" font-size="14.00">commit_modified_summary</text>
<text xml:space="preserve" text-anchor="middle" x="188.67" y="-15.69" font-family="Times,serif" font-size="14.00">8</text>
</g>
<!-- generate_summary_section&#45;&gt;commit_modified_summary -->
<g id="edge2" class="edge">
<title>generate_summary_section&#45;&gt;commit_modified_summary</title>
<path fill="none" stroke="black" d="M210.27,-221.25C220.43,-206.47 231.44,-187.45 236.67,-168.47 243.51,-143.62 243.51,-135.33 236.67,-110.48 232.5,-95.36 224.66,-80.21 216.51,-67.2"/>
<polygon fill="black" stroke="black" points="219.52,-65.4 211.1,-58.97 213.67,-69.25 219.52,-65.4"/>
<text xml:space="preserve" text-anchor="middle" x="245.18" y="-134.42" font-family="Times,serif" font-size="14.00">6</text>
</g>
<!-- commit_direct_instruction&#45;&gt;commit_modified_summary -->
<g id="edge3" class="edge">
<title>commit_direct_instruction&#45;&gt;commit_modified_summary</title>
<path fill="none" stroke="black" d="M132.98,-110.54C142.17,-97.25 153.27,-81.19 163.14,-66.91"/>
<polygon fill="black" stroke="black" points="165.75,-69.29 168.56,-59.08 159.99,-65.31 165.75,-69.29"/>
<text xml:space="preserve" text-anchor="middle" x="159.03" y="-79.18" font-family="Times,serif" font-size="14.00">2</text>
</g>
</g>
</svg>
